<svg width="23" height="25" viewBox="0 0 23 25" fill="none" xmlns="http://www.w3.org/2000/svg">
<path d="M5.45898 24.7007H0.923828V8.43784H5.45898V24.7007ZM3.18896 6.21943C1.73877 6.21943 0.5625 4.88186 0.5625 3.26699C0.5625 2.49131 0.839216 1.7474 1.33177 1.19891C1.82433 0.650423 2.49238 0.342285 3.18896 0.342285C3.88555 0.342285 4.5536 0.650423 5.04616 1.19891C5.53871 1.7474 5.81543 2.49131 5.81543 3.26699C5.81543 4.88186 4.63867 6.21943 3.18896 6.21943ZM22.4326 24.7007H17.9072V16.784C17.9072 14.8973 17.873 12.4777 15.5493 12.4777C13.1914 12.4777 12.8301 14.5276 12.8301 16.6481V24.7007H8.29981V8.43784H12.6494V10.6562H12.7129C13.3184 9.37849 14.7974 8.03004 17.0039 8.03004C21.5938 8.03004 22.4375 11.3957 22.4375 15.7673V24.7007H22.4326Z" fill="white"/>
</svg>
