<svg width="23" height="25" viewBox="0 0 23 25" fill="none" xmlns="http://www.w3.org/2000/svg">
<path d="M11.5049 6.00841C8.39941 6.00841 5.89453 8.79773 5.89453 12.2558C5.89453 15.7139 8.39941 18.5033 11.5049 18.5033C14.6104 18.5033 17.1152 15.7139 17.1152 12.2558C17.1152 8.79773 14.6104 6.00841 11.5049 6.00841ZM11.5049 16.3175C9.49805 16.3175 7.85742 14.496 7.85742 12.2558C7.85742 10.0157 9.49316 8.19419 11.5049 8.19419C13.5166 8.19419 15.1523 10.0157 15.1523 12.2558C15.1523 14.496 13.5117 16.3175 11.5049 16.3175ZM18.6533 5.75285C18.6533 6.56301 18.0674 7.21004 17.3447 7.21004C16.6172 7.21004 16.0361 6.55757 16.0361 5.75285C16.0361 4.94814 16.6221 4.29567 17.3447 4.29567C18.0674 4.29567 18.6533 4.94814 18.6533 5.75285ZM22.3691 7.23179C22.2861 5.27981 21.8857 3.55076 20.6016 2.12619C19.3223 0.70163 17.7695 0.255774 16.0166 0.157903C14.21 0.0437199 8.79492 0.0437199 6.98828 0.157903C5.24023 0.250336 3.6875 0.696193 2.40332 2.12076C1.11914 3.54532 0.723633 5.27437 0.635742 7.22636C0.533203 9.23815 0.533203 15.2681 0.635742 17.2799C0.71875 19.2318 1.11914 20.9609 2.40332 22.3855C3.6875 23.81 5.23535 24.2559 6.98828 24.3538C8.79492 24.4679 14.21 24.4679 16.0166 24.3538C17.7695 24.2613 19.3223 23.8155 20.6016 22.3855C21.8809 20.9609 22.2812 19.2318 22.3691 17.2799C22.4717 15.2681 22.4717 9.24358 22.3691 7.23179ZM20.0352 19.4385C19.6543 20.5042 18.917 21.3252 17.9551 21.7547C16.5146 22.3909 13.0967 22.2441 11.5049 22.2441C9.91309 22.2441 6.49023 22.3855 5.05469 21.7547C4.09766 21.3306 3.36035 20.5096 2.97461 19.4385C2.40332 17.8345 2.53516 14.0284 2.53516 12.2558C2.53516 10.4833 2.4082 6.67175 2.97461 5.0732C3.35547 4.00749 4.09277 3.18646 5.05469 2.75692C6.49512 2.12076 9.91309 2.26756 11.5049 2.26756C13.0967 2.26756 16.5195 2.12619 17.9551 2.75692C18.9121 3.18103 19.6494 4.00205 20.0352 5.0732C20.6064 6.67719 20.4746 10.4833 20.4746 12.2558C20.4746 14.0284 20.6064 17.8399 20.0352 19.4385Z" fill="white"/>
</svg>
