<svg width="25" height="24" viewBox="0 0 25 24" fill="none" xmlns="http://www.w3.org/2000/svg">
<path d="M22.4302 6.59092C22.446 6.8382 22.446 7.08554 22.446 7.33283C22.446 14.8754 17.2906 23.5662 7.86802 23.5662C4.96509 23.5662 2.26841 22.63 0 21.005C0.412451 21.0579 0.808984 21.0756 1.2373 21.0756C3.63257 21.0756 5.83755 20.1747 7.59834 18.6379C5.3458 18.5849 3.45811 16.9422 2.80771 14.6811C3.125 14.7341 3.44224 14.7694 3.77539 14.7694C4.2354 14.7694 4.69546 14.6988 5.12373 14.5752C2.77603 14.0452 1.01519 11.7489 1.01519 8.97559V8.90496C1.69727 9.32891 2.49048 9.59387 3.33115 9.62915C1.95107 8.60461 1.04692 6.85587 1.04692 4.87747C1.04692 3.81764 1.30068 2.8461 1.74487 1.99822C4.26709 5.4604 8.05835 7.72138 12.3096 7.96872C12.2303 7.54478 12.1827 7.10322 12.1827 6.6616C12.1827 3.51734 14.4669 0.956055 17.3064 0.956055C18.7816 0.956055 20.1141 1.64496 21.05 2.7578C22.208 2.51052 23.3184 2.03356 24.302 1.38C23.9212 2.70484 23.1122 3.81769 22.0494 4.52421C23.0805 4.40062 24.0799 4.08259 24.9999 3.64103C24.302 4.7715 23.4295 5.77832 22.4302 6.59092Z" fill="white"/>
</svg>
