<svg width="25" height="20" viewBox="0 0 25 20" fill="none" xmlns="http://www.w3.org/2000/svg">
<path d="M23.8566 3.88533C23.584 2.7423 22.7808 1.84208 21.761 1.53658C19.9124 0.981445 12.5001 0.981445 12.5001 0.981445C12.5001 0.981445 5.08773 0.981445 3.23917 1.53658C2.21933 1.84213 1.41612 2.7423 1.14351 3.88533C0.648193 5.95715 0.648193 10.2798 0.648193 10.2798C0.648193 10.2798 0.648193 14.6025 1.14351 16.6743C1.41612 17.8173 2.21933 18.68 3.23917 18.9855C5.08773 19.5407 12.5001 19.5407 12.5001 19.5407C12.5001 19.5407 19.9124 19.5407 21.761 18.9855C22.7808 18.68 23.584 17.8173 23.8566 16.6743C24.3519 14.6025 24.3519 10.2798 24.3519 10.2798C24.3519 10.2798 24.3519 5.95715 23.8566 3.88533ZM10.0758 14.2045V6.35516L16.2711 10.2799L10.0758 14.2045Z" fill="white"/>
</svg>
